<svg width="137" height="35" viewBox="0 0 137 35" fill="none" xmlns="http://www.w3.org/2000/svg">
<path d="M51.7881 20.5134H50.5541V23.7089H46V11.0017H52.5023C53.7504 11.0017 54.8377 11.1963 55.7623 11.5822C56.6887 11.9698 57.4029 12.5254 57.9032 13.2523C58.4053 13.9793 58.6563 14.826 58.6563 15.7941C58.6563 16.7024 58.4371 17.4942 58.0004 18.1729C57.5638 18.8516 56.9326 19.3889 56.1088 19.7881L58.9445 23.7089H54.0828L51.7863 20.5134H51.7881ZM53.6019 14.6946C53.2925 14.4351 52.8294 14.3036 52.2124 14.3036H50.5523V17.2812H52.2124C52.8294 17.2812 53.2925 17.1515 53.6019 16.8903C53.9113 16.6308 54.0651 16.2632 54.0651 15.7925C54.0651 15.3217 53.9113 14.9541 53.6019 14.6946Z" fill="#FFFFFF"/>
<path d="M62.4202 22.4197C61.2622 21.3667 60.6841 19.8896 60.6841 17.9899V11H65.2382V17.8618C65.2382 18.7933 65.415 19.472 65.7686 19.8946C66.1221 20.3187 66.633 20.53 67.3031 20.53C67.9731 20.53 68.4823 20.3187 68.8376 19.8946C69.1912 19.4704 69.368 18.7933 69.368 17.8618V11H73.8443V17.9899C73.8443 19.8896 73.2662 21.3667 72.1082 22.4197C70.9502 23.4727 69.3362 24 67.266 24C65.1958 24 63.5817 23.4727 62.4237 22.4197" fill="#FFFFFF"/>
<path d="M89.6633 11V23.7072H85.9207L80.7868 17.935V23.7072H76.3494V11H80.0938L85.226 16.7722V11H89.6633Z" fill="#FFFFFF"/>
<path d="M96.3583 21.4932L95.4514 23.7089H90.8213L96.7261 11H101.202L107.107 23.7089H102.399L101.492 21.4932H96.3583ZM100.235 18.4074L98.9235 15.2119L97.6118 18.4074H100.235Z" fill="#FFFFFF"/>
<path d="M113.761 19.4953L112.738 20.5666V23.7072H108.262V11H112.738V15.6111L117.175 11H122.134L116.731 16.5909L122.405 23.7072H117.138L113.761 19.4953Z" fill="#FFFFFF"/>
<path d="M128 11H123.446V23.7072H128V11Z" fill="#FFFFFF"/>
<path d="M3.00121 22.1253C3.00121 22.1253 11.6608 18.0844 25.6074 18.0518C22.6829 19.7929 22.0145 20.7011 22.0145 20.7011C22.0145 20.7011 31.5423 19.5018 37.717 22.1545C31.7191 21.6206 22.0278 22.4827 15.64 24.5004C15.8035 23.8698 17.316 21.8004 18.8236 20.6168C18.8236 20.6168 5.57329 21.443 3 22.1253" fill="#FFFFFF"/>
<path d="M39.5625 11.6645L31.1669 12.7942L34.2198 5.44857L27.1853 9.8492L26.5035 2L22.2216 8.79597L17.936 2L17.2554 9.84808L10.2197 5.45082L13.275 12.7964L4.87942 11.6668L11.065 17.0555L4.38535 20.3759C6.20542 19.643 8.39483 18.9011 10.9221 18.3088C13.1503 17.7861 15.2004 17.4826 16.9926 17.3095C16.7589 17.1993 16.5252 17.088 16.2927 16.9779L8.41905 13.2494L17.8706 16.1989L12.6695 8.30139L19.5211 15.0254L18.8115 5.55535L22.0484 14.6905L25.628 5.55423L24.1179 14.8265L31.77 8.29915L26.3994 15.8853L36.0229 13.2461C34.5019 14.016 29.4619 17.7895 25.8532 19.4193C29.2149 18.9202 33.2013 19.2833 36.8669 20.8615C34.9015 19.2372 32.1539 18.1042 31.4648 18.0502L39.5625 11.6634V11.6645Z" fill="#D2AD50"/>
</svg>
